<svg xmlns="http://www.w3.org/2000/svg" xmlns:xlink="http://www.w3.org/1999/xlink" width="500" zoomAndPan="magnify" viewBox="0 0 375 374.999991" height="500" preserveAspectRatio="xMidYMid meet" version="1.0"><defs><g/><clipPath id="2e2fefadbc"><path d="M 57 28 L 318.75 28 L 318.75 283.699219 L 57 283.699219 Z M 57 28 " clip-rule="nonzero"/></clipPath><clipPath id="184c4cfa46"><path d="M 117.214844 79.035156 L 257.464844 79.035156 L 257.464844 232.035156 L 117.214844 232.035156 Z M 117.214844 79.035156 " clip-rule="nonzero"/></clipPath></defs><g clip-path="url(#2e2fefadbc)"><path fill="#2eaeda" d="M 313.875 159.15625 C 313.371094 173.390625 310.488281 187.539062 305.351562 200.800781 C 299.324219 216.425781 290.21875 230.828125 278.75 242.980469 C 267.296875 255.148438 253.46875 265.058594 238.257812 271.953125 C 223.058594 278.863281 206.503906 282.710938 189.851562 283.300781 C 173.199219 283.917969 156.4375 281.273438 140.828125 275.5 C 125.207031 269.753906 110.753906 260.917969 98.507812 249.695312 C 86.25 238.480469 76.199219 224.875 69.140625 209.859375 C 62.054688 194.851562 58.007812 178.445312 57.179688 161.917969 C 56.3125 145.375 58.691406 128.675781 64.203125 113.078125 C 69.6875 97.476562 78.261719 82.988281 89.242188 70.652344 C 100.214844 58.3125 113.59375 48.132812 128.414062 40.890625 C 143.226562 33.636719 159.457031 29.371094 175.882812 28.296875 C 192.304688 27.179688 208.941406 29.304688 224.527344 34.550781 C 240.117188 39.78125 254.644531 48.101562 267.058594 58.839844 C 279.480469 69.570312 289.789062 82.726562 297.199219 97.34375 C 304.628906 111.957031 309.109375 128.03125 310.429688 144.347656 C 308.980469 128.039062 304.371094 112.03125 296.855469 97.519531 C 289.355469 83 278.988281 69.992188 266.554688 59.425781 C 254.132812 48.847656 239.652344 40.710938 224.167969 35.648438 C 208.679688 30.566406 192.214844 28.605469 175.992188 29.832031 C 159.769531 31.023438 143.792969 35.363281 129.265625 42.621094 C 114.726562 49.863281 101.652344 59.980469 90.980469 72.183594 C 80.289062 84.375 71.996094 98.652344 66.75 113.960938 C 61.476562 129.273438 59.285156 145.605469 60.253906 161.742188 C 61.195312 177.878906 65.265625 193.824219 72.269531 208.371094 C 79.257812 222.921875 89.125 236.058594 101.105469 246.84375 C 113.070312 257.636719 127.136719 266.082031 142.277344 271.515625 C 157.414062 276.976562 173.609375 279.398438 189.660156 278.675781 C 205.71875 277.984375 221.621094 274.148438 236.171875 267.394531 C 250.726562 260.65625 263.921875 251.039062 274.808594 239.296875 C 285.710938 227.558594 294.304688 213.707031 299.945312 198.746094 C 304.734375 186.09375 307.367188 172.65625 307.757812 159.15625 C 305.144531 158.023438 303.257812 155.484375 303.101562 152.453125 C 302.890625 148.1875 306.164062 144.558594 310.429688 144.347656 C 314.6875 144.128906 318.320312 147.410156 318.53125 151.667969 C 318.699219 154.988281 316.75 157.917969 313.875 159.15625 Z M 313.875 159.15625 " fill-opacity="1" fill-rule="nonzero"/></g><path fill="#13151b" d="M 285.328125 153.914062 C 285.40625 166.933594 282.9375 179.960938 278.058594 192.007812 C 273.203125 204.066406 265.96875 215.136719 256.929688 224.441406 C 247.894531 233.75 237.046875 241.28125 225.179688 246.457031 C 213.3125 251.648438 200.4375 254.449219 187.523438 254.753906 C 174.613281 255.085938 161.636719 252.882812 149.589844 248.269531 C 137.535156 243.667969 126.414062 236.6875 117.023438 227.882812 C 107.625 219.085938 99.953125 208.464844 94.597656 196.78125 C 89.226562 185.109375 86.199219 172.390625 85.652344 159.574219 C 86.328125 172.382812 89.480469 185.046875 94.945312 196.621094 C 100.402344 208.203125 108.132812 218.6875 117.546875 227.324219 C 126.957031 235.964844 138.039062 242.765625 149.992188 247.183594 C 161.949219 251.628906 174.765625 253.664062 187.480469 253.21875 C 200.203125 252.792969 212.820312 249.90625 224.402344 244.699219 C 235.988281 239.507812 246.53125 232.023438 255.265625 222.839844 C 264.007812 213.664062 270.949219 202.792969 275.5625 191.011719 C 280.191406 179.238281 282.449219 166.574219 282.25 153.945312 C 282.070312 141.320312 279.449219 128.742188 274.5 117.148438 C 269.554688 105.554688 262.328125 94.964844 253.367188 86.128906 C 244.421875 77.289062 233.761719 70.203125 222.160156 65.414062 C 210.5625 60.617188 198.039062 58.101562 185.507812 58.101562 C 172.972656 58.074219 160.460938 60.449219 148.867188 65.136719 C 137.273438 69.8125 126.652344 76.816406 117.722656 85.53125 C 108.792969 94.242188 101.570312 104.683594 96.597656 116.105469 C 92.601562 125.25 90.058594 135.023438 89.082031 144.949219 C 91.597656 146.214844 93.328125 148.808594 93.339844 151.816406 C 93.359375 156.082031 89.917969 159.554688 85.652344 159.574219 C 81.386719 159.59375 77.914062 156.152344 77.894531 151.886719 C 77.882812 148.523438 80.015625 145.648438 83.019531 144.582031 C 84.136719 133.953125 86.945312 123.507812 91.316406 113.769531 C 96.714844 101.722656 104.46875 90.761719 113.980469 81.660156 C 123.496094 72.558594 134.765625 65.285156 147.015625 60.496094 C 159.257812 55.679688 172.433594 53.324219 185.546875 53.488281 C 198.667969 53.617188 211.746094 56.382812 223.800781 61.511719 C 235.859375 66.636719 246.878906 74.125 256.089844 83.410156 C 265.304688 92.679688 272.695312 103.75 277.6875 115.8125 C 282.699219 127.863281 285.269531 140.898438 285.328125 153.914062 Z M 285.328125 153.914062 " fill-opacity="1" fill-rule="nonzero"/><g clip-path="url(#184c4cfa46)"><path fill="#2eaeda" d="M 250.832031 101.085938 C 248.230469 99.488281 244.527344 100.613281 242.285156 100.945312 C 240.164062 101.25 238.019531 101.640625 235.828125 101.808594 C 225.667969 102.570312 213.519531 102.085938 203.957031 96.414062 C 200.3125 94.246094 197.40625 90.976562 194.734375 87.6875 C 192.914062 85.449219 191.234375 81.078125 188.542969 80.085938 C 185.632812 79.019531 184.195312 83.074219 182.765625 85.082031 C 181.042969 87.515625 179.371094 90.074219 177.058594 92.007812 C 172.898438 95.488281 168.050781 98.171875 162.875 99.71875 C 154.238281 102.304688 145.886719 102.304688 137.484375 101.632812 C 133.941406 101.351562 130.78125 100.261719 127.480469 99.621094 C 121.058594 98.433594 121.703125 109.851562 121.132812 113.101562 C 120.246094 117.648438 119.472656 122.179688 118.902344 126.699219 C 117.863281 134.902344 117.464844 143.078125 118.320312 151.210938 C 119.660156 164.082031 124.566406 176.621094 133.128906 188.222656 C 139.988281 197.5 148.578125 205.902344 157.417969 213.339844 C 163.867188 218.757812 170.542969 223.8125 177.417969 227.816406 C 180.441406 229.578125 183.527344 231.167969 186.808594 231.914062 C 186.972656 231.949219 187.335938 232.109375 187.492188 232.058594 C 190.398438 231.164062 193.09375 230.292969 195.886719 228.769531 C 202.363281 225.238281 208.628906 220.617188 214.710938 215.699219 C 223.433594 208.636719 231.972656 200.628906 239.101562 191.796875 C 247.902344 180.863281 253.734375 168.9375 255.921875 156.519531 C 257.554688 147.308594 257.386719 138.117188 256.359375 128.808594 C 255.628906 122.226562 253.910156 115.632812 253.464844 109.039062 C 253.324219 106.902344 253.785156 104.050781 251.9375 102.003906 C 251.597656 101.628906 251.226562 101.328125 250.832031 101.085938 Z M 250.832031 101.085938 " fill-opacity="1" fill-rule="nonzero"/></g><path fill="#ffffff" d="M 187.289062 220.945312 C 184.667969 220.945312 167.027344 214.140625 150.34375 199.003906 C 139.296875 188.609375 131.894531 177.546875 127.703125 165.175781 C 122.199219 148.941406 122.566406 130.65625 128.789062 110.835938 C 128.800781 110.777344 128.820312 110.71875 128.84375 110.664062 C 128.964844 110.386719 129.257812 110.207031 129.558594 110.207031 C 129.71875 110.207031 129.871094 110.246094 130.574219 110.421875 C 132.835938 110.992188 139.714844 112.734375 148.355469 112.734375 C 159.433594 112.734375 175.113281 109.773438 186.910156 95.675781 C 187.054688 95.503906 187.265625 95.402344 187.492188 95.402344 C 187.492188 95.402344 187.496094 95.402344 187.496094 95.402344 C 187.722656 95.402344 187.9375 95.503906 188.082031 95.679688 C 199.3125 109.257812 215.796875 112.109375 227.652344 112.109375 C 235.023438 112.109375 240.9375 111.027344 243.160156 110.617188 C 243.914062 110.480469 244.140625 110.441406 244.308594 110.441406 C 244.597656 110.441406 244.902344 110.613281 245.027344 110.878906 C 245.054688 110.9375 245.074219 110.996094 245.085938 111.058594 C 251.265625 130.945312 251.671875 149.253906 246.292969 165.480469 C 242.191406 177.851562 234.921875 188.882812 224.074219 199.207031 C 206.835938 215.027344 189.847656 220.941406 187.695312 220.941406 L 187.691406 220.941406 C 187.625 220.941406 187.558594 220.9375 187.5 220.929688 C 187.433594 220.941406 187.363281 220.945312 187.289062 220.945312 Z M 187.289062 219.421875 L 187.289062 220.179688 L 187.292969 219.421875 C 187.292969 219.421875 187.289062 219.421875 187.289062 219.421875 Z M 130.066406 111.867188 C 119.441406 146.25 126.414062 174.394531 151.378906 197.886719 C 168.300781 213.242188 184.960938 219.238281 187.195312 219.417969 C 187.285156 219.378906 187.382812 219.363281 187.492188 219.355469 C 187.597656 219.355469 187.695312 219.375 187.785156 219.414062 C 190.019531 219.230469 206.464844 213.296875 223.035156 198.09375 C 247.230469 175.066406 254.21875 146.117188 243.800781 112.050781 C 243.6875 112.070312 243.5625 112.09375 243.4375 112.117188 C 241.171875 112.53125 235.164062 113.632812 227.652344 113.632812 C 215.675781 113.632812 199.078125 110.78125 187.492188 97.34375 C 175.390625 111.300781 159.574219 114.257812 148.355469 114.257812 C 139.527344 114.257812 132.507812 112.480469 130.199219 111.898438 C 130.15625 111.886719 130.109375 111.875 130.066406 111.867188 Z M 130.066406 111.867188 " fill-opacity="1" fill-rule="nonzero"/><path fill="#ffffff" d="M 218.664062 140.738281 C 214.214844 140.230469 209.738281 139.84375 205.257812 139.546875 C 205.324219 134.875 205.375 130.203125 205.40625 125.53125 C 205.429688 122.699219 204.328125 119.972656 202.335938 117.855469 C 200.265625 115.65625 197.367188 114.332031 194.371094 114.25 C 189.785156 114.125 185.199219 114.125 180.617188 114.25 C 177.625 114.332031 174.730469 115.652344 172.65625 117.851562 C 170.660156 119.972656 169.558594 122.699219 169.582031 125.519531 C 169.613281 130.195312 169.664062 134.871094 169.734375 139.546875 C 165.253906 139.84375 160.777344 140.230469 156.328125 140.738281 C 150.4375 141.425781 145.953125 146.652344 146.429688 152.375 C 146.738281 156.121094 147.074219 159.875 147.433594 163.628906 C 148.007812 169.46875 153.292969 173.964844 159.3125 173.480469 C 163.019531 173.179688 166.757812 172.957031 170.5 172.769531 C 170.644531 177.304688 170.800781 181.839844 170.96875 186.378906 C 171.210938 192.304688 175.980469 197.078125 181.789062 197.128906 C 181.847656 197.128906 181.90625 197.128906 181.964844 197.128906 C 185.652344 197.09375 189.332031 197.09375 193.03125 197.128906 C 193.089844 197.128906 193.144531 197.128906 193.203125 197.128906 C 199.011719 197.078125 203.777344 192.304688 204.019531 186.367188 C 204.191406 181.832031 204.347656 177.300781 204.488281 172.769531 C 208.230469 172.957031 211.96875 173.179688 215.675781 173.480469 C 216.03125 173.511719 216.382812 173.523438 216.730469 173.515625 C 222.328125 173.40625 227.019531 169.128906 227.558594 163.617188 C 227.917969 159.867188 228.25 156.121094 228.558594 152.382812 C 229.035156 146.652344 224.550781 141.425781 218.664062 140.738281 Z M 218.664062 140.738281 " fill-opacity="1" fill-rule="nonzero"/><path fill="#ffffff" d="M 193.03125 197.890625 C 189.339844 197.855469 185.617188 197.855469 181.972656 197.890625 L 181.785156 197.890625 C 175.550781 197.835938 170.46875 192.792969 170.207031 186.410156 C 170.050781 182.199219 169.902344 177.882812 169.765625 173.570312 C 165.917969 173.769531 162.511719 173.988281 159.375 174.242188 C 158.960938 174.277344 158.585938 173.960938 158.550781 173.542969 C 158.519531 173.125 158.832031 172.757812 159.25 172.722656 C 162.613281 172.449219 166.28125 172.21875 170.464844 172.007812 C 170.667969 171.996094 170.867188 172.070312 171.019531 172.210938 C 171.167969 172.347656 171.257812 172.542969 171.261719 172.746094 C 171.40625 177.316406 171.5625 181.890625 171.730469 186.347656 C 171.957031 191.917969 176.378906 196.320312 181.792969 196.367188 L 181.964844 196.367188 C 185.613281 196.332031 189.34375 196.332031 193.039062 196.367188 L 193.199219 196.367188 C 198.609375 196.320312 203.03125 191.914062 203.261719 186.335938 C 203.429688 181.828125 203.585938 177.253906 203.726562 172.746094 C 203.734375 172.542969 203.824219 172.347656 203.972656 172.210938 C 204.121094 172.070312 204.324219 171.996094 204.527344 172.007812 C 208.710938 172.21875 212.378906 172.449219 215.738281 172.722656 C 216.058594 172.75 216.386719 172.761719 216.71875 172.753906 C 221.960938 172.652344 226.296875 168.691406 226.800781 163.542969 C 227.160156 159.769531 227.496094 155.992188 227.796875 152.320312 C 228.242188 147 224.105469 142.144531 218.574219 141.496094 C 214.316406 141.011719 209.941406 140.621094 205.207031 140.308594 C 204.804688 140.28125 204.488281 139.945312 204.496094 139.539062 C 204.566406 134.847656 204.617188 130.132812 204.648438 125.527344 C 204.648438 125.109375 204.992188 124.769531 205.410156 124.769531 C 205.410156 124.769531 205.414062 124.769531 205.414062 124.769531 C 205.835938 124.773438 206.175781 125.117188 206.171875 125.539062 C 206.140625 129.910156 206.09375 134.382812 206.03125 138.835938 C 210.511719 139.144531 214.679688 139.519531 218.75 139.984375 C 225.089844 140.722656 229.828125 146.3125 229.316406 152.445312 C 229.015625 156.125 228.679688 159.90625 228.320312 163.691406 C 227.738281 169.609375 222.765625 174.160156 216.746094 174.277344 C 216.371094 174.285156 215.988281 174.273438 215.613281 174.242188 C 212.480469 173.988281 209.074219 173.769531 205.226562 173.570312 C 205.09375 177.832031 204.941406 182.140625 204.785156 186.394531 C 204.523438 192.785156 199.441406 197.835938 193.210938 197.890625 Z M 193.03125 197.890625 " fill-opacity="1" fill-rule="nonzero"/><g fill="#13151b" fill-opacity="1"><g transform="translate(106.320833, 321.906747)"><g><path d="M 2.234375 0 L 2.234375 -14.828125 L 4.125 -14.828125 L 9.125 -6.546875 L 14.171875 -14.828125 L 16 -14.828125 L 16 0 L 14.046875 0 L 14.046875 -11.5 L 9.890625 -4.703125 L 8.375 -4.703125 L 4.203125 -11.453125 L 4.203125 0 Z M 2.234375 0 "/></g></g><g transform="translate(124.552277, 321.906747)"><g><path d="M 2.234375 0 L 2.234375 -14.828125 L 11.5 -14.828125 L 11.5 -13.296875 L 4.296875 -13.296875 L 4.296875 -8.40625 L 10.65625 -8.40625 L 10.65625 -6.875 L 4.296875 -6.875 L 4.296875 -1.53125 L 11.625 -1.53125 L 11.625 0 Z M 2.234375 0 "/></g></g><g transform="translate(137.420929, 321.906747)"><g><path d="M 4.3125 -1.53125 L 7.9375 -1.53125 C 9.425781 -1.53125 10.421875 -1.804688 10.921875 -2.359375 C 11.421875 -2.921875 11.671875 -3.710938 11.671875 -4.734375 L 11.671875 -9.953125 C 11.671875 -11.460938 11.164062 -12.445312 10.15625 -12.90625 C 9.582031 -13.164062 8.84375 -13.289062 7.9375 -13.28125 L 4.3125 -13.28125 Z M 2.234375 0 L 2.234375 -14.828125 L 8.125 -14.828125 C 10.957031 -14.828125 12.726562 -13.820312 13.4375 -11.8125 C 13.632812 -11.226562 13.734375 -10.566406 13.734375 -9.828125 L 13.734375 -4.9375 C 13.734375 -3.320312 13.265625 -2.09375 12.328125 -1.25 C 11.398438 -0.414062 10.003906 0 8.140625 0 Z M 2.234375 0 "/></g></g><g transform="translate(153.027373, 321.906747)"><g><path d="M 1.953125 0 L 1.953125 -1.53125 L 4.78125 -1.53125 L 4.78125 -13.296875 L 1.953125 -13.296875 L 1.953125 -14.828125 L 9.65625 -14.828125 L 9.65625 -13.296875 L 6.84375 -13.296875 L 6.84375 -1.53125 L 9.65625 -1.53125 L 9.65625 0 Z M 1.953125 0 "/></g></g><g transform="translate(164.634794, 321.906747)"><g><path d="M 4.046875 -0.453125 C 3.179688 -0.898438 2.597656 -1.5 2.296875 -2.25 C 2.003906 -3.007812 1.859375 -3.921875 1.859375 -4.984375 L 1.859375 -9.640625 C 1.859375 -11.796875 2.421875 -13.269531 3.546875 -14.0625 C 4.492188 -14.71875 5.875 -15.046875 7.6875 -15.046875 C 9.507812 -15.046875 10.828125 -14.796875 11.640625 -14.296875 C 12.460938 -13.796875 12.976562 -13.007812 13.1875 -11.9375 C 13.28125 -11.457031 13.328125 -10.882812 13.328125 -10.21875 L 11.375 -10.046875 C 11.375 -11.046875 11.285156 -11.722656 11.109375 -12.078125 C 10.941406 -12.429688 10.773438 -12.679688 10.609375 -12.828125 C 10.441406 -12.972656 10.164062 -13.101562 9.78125 -13.21875 C 9.394531 -13.332031 8.796875 -13.390625 7.984375 -13.390625 C 7.171875 -13.390625 6.535156 -13.335938 6.078125 -13.234375 C 5.609375 -13.128906 5.207031 -12.945312 4.875 -12.6875 C 4.25 -12.207031 3.9375 -11.316406 3.9375 -10.015625 L 3.9375 -4.671875 C 3.9375 -3.378906 4.253906 -2.515625 4.890625 -2.078125 C 5.523438 -1.648438 6.535156 -1.4375 7.921875 -1.4375 C 9.316406 -1.4375 10.207031 -1.597656 10.59375 -1.921875 C 10.976562 -2.253906 11.210938 -2.734375 11.296875 -3.359375 C 11.347656 -3.703125 11.375 -4.113281 11.375 -4.59375 L 13.328125 -4.59375 C 13.328125 -3.101562 13.113281 -2.054688 12.6875 -1.453125 C 11.894531 -0.335938 10.382812 0.21875 8.15625 0.21875 C 6.289062 0.21875 4.921875 -0.00390625 4.046875 -0.453125 Z M 4.046875 -0.453125 "/></g></g><g transform="translate(179.564481, 321.906747)"><g><path d="M 0.875 0 L 6.40625 -14.828125 L 8.21875 -14.828125 L 13.765625 0 L 11.65625 0 L 10.65625 -2.890625 L 4.046875 -2.890625 L 3.03125 0 Z M 4.53125 -4.359375 L 10.1875 -4.359375 L 7.375 -12.46875 Z M 4.53125 -4.359375 "/></g></g><g transform="translate(194.207058, 321.906747)"><g><path d="M 2.234375 0 L 2.234375 -14.828125 L 4.296875 -14.828125 L 4.296875 -1.59375 L 10.953125 -1.59375 L 10.953125 0 Z M 2.234375 0 "/></g></g><g transform="translate(205.94778, 321.906747)"><g/></g><g transform="translate(211.19778, 321.906747)"><g><path d="M 4.046875 -0.453125 C 3.179688 -0.898438 2.597656 -1.5 2.296875 -2.25 C 2.003906 -3.007812 1.859375 -3.921875 1.859375 -4.984375 L 1.859375 -9.640625 C 1.859375 -11.796875 2.421875 -13.269531 3.546875 -14.0625 C 4.492188 -14.71875 5.875 -15.046875 7.6875 -15.046875 C 9.507812 -15.046875 10.828125 -14.796875 11.640625 -14.296875 C 12.460938 -13.796875 12.976562 -13.007812 13.1875 -11.9375 C 13.28125 -11.457031 13.328125 -10.882812 13.328125 -10.21875 L 11.375 -10.046875 C 11.375 -11.046875 11.285156 -11.722656 11.109375 -12.078125 C 10.941406 -12.429688 10.773438 -12.679688 10.609375 -12.828125 C 10.441406 -12.972656 10.164062 -13.101562 9.78125 -13.21875 C 9.394531 -13.332031 8.796875 -13.390625 7.984375 -13.390625 C 7.171875 -13.390625 6.535156 -13.335938 6.078125 -13.234375 C 5.609375 -13.128906 5.207031 -12.945312 4.875 -12.6875 C 4.25 -12.207031 3.9375 -11.316406 3.9375 -10.015625 L 3.9375 -4.671875 C 3.9375 -3.378906 4.253906 -2.515625 4.890625 -2.078125 C 5.523438 -1.648438 6.535156 -1.4375 7.921875 -1.4375 C 9.316406 -1.4375 10.207031 -1.597656 10.59375 -1.921875 C 10.976562 -2.253906 11.210938 -2.734375 11.296875 -3.359375 C 11.347656 -3.703125 11.375 -4.113281 11.375 -4.59375 L 13.328125 -4.59375 C 13.328125 -3.101562 13.113281 -2.054688 12.6875 -1.453125 C 11.894531 -0.335938 10.382812 0.21875 8.15625 0.21875 C 6.289062 0.21875 4.921875 -0.00390625 4.046875 -0.453125 Z M 4.046875 -0.453125 "/></g></g><g transform="translate(226.127466, 321.906747)"><g><path d="M 0.875 0 L 6.40625 -14.828125 L 8.21875 -14.828125 L 13.765625 0 L 11.65625 0 L 10.65625 -2.890625 L 4.046875 -2.890625 L 3.03125 0 Z M 4.53125 -4.359375 L 10.1875 -4.359375 L 7.375 -12.46875 Z M 4.53125 -4.359375 "/></g></g><g transform="translate(240.770043, 321.906747)"><g><path d="M 2.234375 0 L 2.234375 -14.828125 L 8.84375 -14.828125 C 10.894531 -14.828125 12.175781 -14.054688 12.6875 -12.515625 C 12.882812 -11.941406 12.984375 -11.257812 12.984375 -10.46875 C 12.984375 -9.675781 12.890625 -9.007812 12.703125 -8.46875 C 12.523438 -7.9375 12.289062 -7.523438 12 -7.234375 C 11.707031 -6.941406 11.34375 -6.703125 10.90625 -6.515625 L 14.046875 0 L 11.921875 0 L 8.984375 -6.15625 L 4.3125 -6.140625 L 4.3125 0 Z M 4.3125 -7.71875 L 8.671875 -7.71875 C 9.546875 -7.71875 10.140625 -7.953125 10.453125 -8.421875 C 10.765625 -8.890625 10.921875 -9.554688 10.921875 -10.421875 C 10.910156 -11.960938 10.503906 -12.867188 9.703125 -13.140625 C 9.472656 -13.222656 9.207031 -13.265625 8.90625 -13.265625 L 4.3125 -13.265625 Z M 4.3125 -7.71875 "/></g></g><g transform="translate(255.781761, 321.906747)"><g><path d="M 2.234375 0 L 2.234375 -14.828125 L 11.5 -14.828125 L 11.5 -13.296875 L 4.296875 -13.296875 L 4.296875 -8.40625 L 10.65625 -8.40625 L 10.65625 -6.875 L 4.296875 -6.875 L 4.296875 -1.53125 L 11.625 -1.53125 L 11.625 0 Z M 2.234375 0 "/></g></g></g></svg>